<mxfile host="app.diagrams.net" modified="2023-05-15T17:42:50.256Z" agent="Mozilla/5.0 (Windows NT 10.0; Win64; x64) AppleWebKit/537.36 (KHTML, like Gecko) Chrome/110.0.0.0 YaBrowser/23.3.4.595 Yowser/2.5 Safari/537.36" version="21.2.9" etag="DXcQXAMVmhGi3LdI13Ng" type="github">
  <diagram name="Страница 1" id="bAaWModTYYa_yQOCfalj">
    <mxGraphModel>
      <root>
        <mxCell id="0" />
        <mxCell id="1" parent="0" />
      </root>
    </mxGraphModel>
  </diagram>
</mxfile>
